<svg xmlns="http://www.w3.org/2000/svg" fill="none" viewBox="-1.565 -1.565 50 50" id="Check-Double--Streamline-Ultimate.svg" height="50" width="50"><desc>Check Double Streamline Icon: https://streamlinehq.com</desc><path stroke="#000000" stroke-linejoin="round" d="m16.10759807916667 40.781001125 -12.949790416666668 -12.951743333333335c-1.0354950041666666 -1.0930474583333334 -1.6036316620833335 -2.546993916666667 -1.5835400554166668 -4.052497375000001 0.020091606666666668 -1.50569875 0.6268257095833334 -2.9440218750000002 1.6911262345833333 -4.008947333333333 1.0643005250000002 -1.0651207500000002 2.502174479166667 -1.6728879458333334 4.007716995833333 -1.6940575625000003 1.505542516666667 -0.02116961666666667 2.959918616666667 0.545918325 4.0537472416666676 1.5805931041666668l8.2374610875 8.2374025 15.428041666666669 -20.57003219166667c0.45522487500000003 -0.6076890791666667 1.025867125 -1.1197243000000001 1.67911775 -1.5069095583333334 0.6532506250000001 -0.38716572916666675 1.3764156666666667 -0.6418846500000002 2.1280932916666666 -0.7496075333333334 0.7516776250000001 -0.10770335416666667 1.5170256666666668 -0.06632105 2.2528846666666666 0.12180341250000001 0.7356637083333334 0.18814399166666668 1.4269962083333334 0.5193391291666667 2.034743875 0.9746811791666667 0.607552375 0.45534205000000005 1.1196071250000001 1.0259257125 1.5068705 1.6791568083333335 0.38706808333333337 0.6532506250000001 0.6419237083333333 1.3763375500000001 0.7495294166666667 2.1280151750000003 0.10780100000000001 0.7516776250000001 0.06639916666666668 1.5172014291666667 -0.12166670833333335 2.2528846666666666 -0.18826116666666667 0.7356832375000001 -0.5194758333333334 1.427093854166667 -0.9747007083333334 2.0347829333333336L24.821570833333336 40.16192654166667c-0.49721258333333335 0.6626246250000001 -1.1307387500000001 1.2106130416666667 -1.8582002083333335 1.607055125 -0.7272661666666668 0.3964420833333334 -1.5312819583333335 0.6319638333333334 -2.3575610000000005 0.6907466250000001 -0.8262790416666667 0.0585875 -1.6554874583333334 -0.06073570833333334 -2.4315570125000003 -0.35035325000000006 -0.7760695541666668 -0.28961754166666664 -1.4808576500000001 -0.7426942083333334 -2.0666545333333337 -1.3283739166666668Z" stroke-width="3.13"></path></svg>