<svg id="Warning--Streamline-Carbon" xmlns="http://www.w3.org/2000/svg" viewBox="0 0 48 48" height="48" width="48">
  <desc>
    Warning Streamline Icon: https://streamlinehq.com
  </desc>
  <defs></defs>
  <title>warning</title>
  <path d="M24 3a21 21 0 1 0 21 21A21 21 0 0 0 24 3Zm0 39a18 18 0 1 1 18 -18 18 18 0 0 1 -18 18Z" fill="#ffffff" stroke-width="1.5"></path>
  <path d="M22.5 12h3v16.5h-3Z" fill="#ffffff" stroke-width="1.5"></path>
  <path d="M24 33a2.25 2.25 0 1 0 2.25 2.25A2.25 2.25 0 0 0 24 33Z" fill="#ffffff" stroke-width="1.5"></path>
  <path id="_Transparent_Rectangle_" d="M0 0h48v48H0Z" fill="none" stroke-width="1.5"></path>
</svg>