<svg xmlns="http://www.w3.org/2000/svg" xmlns:xlink="http://www.w3.org/1999/xlink" width="50" zoomAndPan="magnify" viewBox="0 0 37.5 37.499999" height="50" preserveAspectRatio="xMidYMid meet" version="1.0"><defs><clipPath id="6855546b1a"><path d="M 1 2 L 23 2 L 23 37.007812 L 1 37.007812 Z M 1 2 " clip-rule="nonzero"/></clipPath><clipPath id="28acdc3c76"><path d="M 0 16 L 26 16 L 26 37.007812 L 0 37.007812 Z M 0 16 " clip-rule="nonzero"/></clipPath></defs><g clip-path="url(#6855546b1a)"><path stroke-linecap="round" transform="matrix(1.541941, 0, 0, 1.541941, 0.0000005, 0)" fill="none" stroke-linejoin="round" d="M 13.999201 16.000535 L 13.999201 21.751202 C 13.999201 22.148935 13.842134 22.528935 13.560934 22.810135 C 13.279734 23.091336 12.897201 23.250936 12.499468 23.250936 L 2.999467 23.250936 C 2.601733 23.250936 2.221733 23.091336 1.940533 22.810135 C 1.6568 22.528935 1.499733 22.148935 1.499733 21.751202 L 1.499733 4.000134 C 1.499733 3.6024 1.6568 3.219867 1.940533 2.938667 C 2.221733 2.657467 2.601733 2.5004 2.999467 2.5004 L 7.2504 2.5004 " stroke="#000000" stroke-width="1.5" stroke-opacity="1" stroke-miterlimit="4"/></g><path stroke-linecap="round" transform="matrix(1.541941, 0, 0, 1.541941, 0.0000005, 0)" fill="none" stroke-linejoin="round" d="M 22.501068 6.074934 C 22.503602 7.820401 21.910802 9.515201 20.818935 10.880668 C 19.729602 12.243601 18.204535 13.193601 16.499601 13.573601 C 14.794668 13.193601 13.272134 12.243601 12.180267 10.880668 C 11.088401 9.515201 10.495601 7.820401 10.500667 6.074934 L 10.500667 2.824667 C 14.500801 0.0582667 18.500935 0.0582667 22.501068 2.824667 Z M 22.501068 6.074934 " stroke="#000000" stroke-width="1.5" stroke-opacity="1" stroke-miterlimit="4"/><path stroke-linecap="round" transform="matrix(1.541941, 0, 0, 1.541941, 0.0000005, 0)" fill="none" stroke-linejoin="round" d="M 19.476268 4.268667 L 16.573068 8.142134 C 16.451468 8.301734 16.274135 8.405601 16.076535 8.433467 C 15.878935 8.461334 15.678801 8.410667 15.519201 8.291601 C 15.491334 8.268801 15.466001 8.246001 15.440668 8.223201 L 13.940934 6.720934 " stroke="#000000" stroke-width="1.5" stroke-opacity="1" stroke-miterlimit="4"/><g clip-path="url(#28acdc3c76)"><path stroke-linecap="butt" transform="matrix(1.541941, 0, 0, 1.541941, 0.0000005, 0)" fill="none" stroke-linejoin="miter" d="M 7.749467 19.874002 C 7.541734 19.874002 7.374534 19.706802 7.374534 19.499068 C 7.374534 19.293868 7.541734 19.124135 7.749467 19.124135 " stroke="#000000" stroke-width="1.5" stroke-opacity="1" stroke-miterlimit="4"/><path stroke-linecap="butt" transform="matrix(1.541941, 0, 0, 1.541941, 0.0000005, 0)" fill="none" stroke-linejoin="miter" d="M 7.749467 19.874002 C 7.9572 19.874002 8.1244 19.706802 8.1244 19.499068 C 8.1244 19.293868 7.9572 19.124135 7.749467 19.124135 " stroke="#000000" stroke-width="1.5" stroke-opacity="1" stroke-miterlimit="4"/></g></svg>