<svg xmlns="http://www.w3.org/2000/svg" viewBox="0 0 48 32" width="48" height="32">
  <rect width="48" height="32" rx="4" fill="#000000"/>
  <path d="M15.5 12.5c.5-.6.8-1.4.7-2.2-.7 0-1.6.5-2.1 1.1-.5.5-.8 1.3-.7 2.1.8 0 1.6-.4 2.1-1z" fill="white"/>
  <path d="M16.2 13.7c-1.2-.1-2.2.7-2.7.7s-1.4-.6-2.3-.6c-1.2 0-2.3.7-2.9 1.8-1.2 2.1-.3 5.2.9 7 .6.9 1.3 1.8 2.2 1.8.9 0 1.2-.6 2.2-.6 1.1 0 1.4.6 2.3.6.9 0 1.5-.8 2.1-1.7.7-1 .9-2 .9-2s-1.8-.7-1.8-2.7c0-1.7 1.4-2.5 1.4-2.5-.7-1.1-1.9-1.8-3.3-1.8z" fill="white"/>
  <text x="24" y="20" font-family="Arial" font-weight="bold" font-size="7.5" fill="white">Pay</text>
</svg>
