<svg xmlns="http://www.w3.org/2000/svg" viewBox="0 0 48 32" width="48" height="32">
  <rect width="48" height="32" rx="4" fill="#1A1F71"/>
  <path d="M20.5 21.5H17.4l1.9-11.5h3.1L20.5 21.5zm-6.2-11.5l-2.9 7.9-.3-1.7-1-5.1s-.1-.8-1.1-.8H4.2l-.1.3s1.4.3 3 1.3l2.5 9.6h3.2l4.8-11.5h-3.3zm22.4 0h-3c-.9 0-1.1.7-1.1.7l-4.5 10.8h3.2l.6-1.7h3.9l.4 1.7h2.8l-2.3-11.5zm-3.7 7.3l1.6-4.4.9 4.4h-2.5zm-7.8-5.6c0-.5.5-1 1.6-1 .9 0 1.8.2 2.4.5l.4-2.4s-1-.4-2.7-.4c-2.9 0-4.9 1.5-4.9 3.7 0 2.9 4 3.1 4 4.7 0 .5-.4 1.3-1.9 1.3-1.2 0-2.4-.4-3-.7l-.4 2.4s1.1.5 2.9.5c2.9 0 5-1.5 5-3.9 0-3-4.4-3.1-4.4-4.7z" fill="white"/>
</svg>
