<svg xmlns="http://www.w3.org/2000/svg" fill="none" viewBox="0 0 2577 302" height="302" width="2577">
<path fill="#000000" d="M626.648 0.000584602V302.001H545.476V0.000584602H626.648Z"></path>
<path fill="#000000" d="M266.244 302.001V0.000584602H397.015C419.5 0.000584602 439.175 4.08034 456.039 12.2398C472.903 20.3994 486.02 32.1471 495.389 47.483C504.757 62.8189 509.442 81.2024 509.442 102.633C509.442 124.261 504.61 142.497 494.945 157.341C485.379 172.186 471.917 183.393 454.56 190.963C437.301 198.532 400.036 202.317 376.959 202.317V138.614C386.624 138.614 395.388 137.434 402.192 135.075C409.096 132.617 414.372 128.734 418.021 123.425C421.769 118.117 423.642 111.186 423.642 102.633C423.642 93.9824 421.769 86.9534 418.021 81.5465C414.372 76.0413 409.096 72.0107 402.192 69.4547C395.388 66.8004 387.153 65.4732 377.488 65.4732H348.494V302.001H266.244ZM443.761 163.387L519.501 302.001H430.151L376.959 202.317V163.387H443.761Z"></path>
<path fill="#000000" d="M2375.19 302V0H2456.04V235.925H2577V302H2375.19Z"></path>
<path fill="#000000" d="M2196.95 302V0H2277.8V302H2196.95Z"></path>
<path fill="#000000" d="M1968.25 155C1968.25 120.083 1974.45 89.25 1986.83 62.5C1999.22 35.5833 2016.61 14.8333 2039 0.25C2061.39 -14.3333 2087.46 -21.5 2117.22 -21.5C2135.77 -21.5 2152.53 -18.6667 2167.51 -13C2182.49 -7.33334 2195.16 0.166664 2205.51 9.5C2215.86 18.8333 2224.71 29 2232.05 40C2239.39 51 2245.09 62 2249.14 73L2186.4 96.5C2183.51 87.6667 2179.22 79.5 2173.52 72C2167.83 64.5 2160.61 58.6667 2151.89 54.5C2143.16 50.3333 2133.12 48.25 2121.76 48.25C2104.37 48.25 2089.47 52.5 2077.07 61C2064.68 69.5 2055.11 82.1667 2048.38 99C2041.65 115.833 2038.28 136.167 2038.28 160C2038.28 183.667 2041.65 203.917 2048.38 220.75C2055.11 237.583 2064.68 250.333 2077.07 259C2089.47 267.667 2104.37 272 2121.76 272C2133.12 272 2143.16 269.917 2151.89 265.75C2160.61 261.583 2167.83 255.667 2173.52 248C2179.22 240.333 2183.51 232.167 2186.4 223.5L2249.14 247C2245.09 258 2239.39 269 2232.05 280C2224.71 291 2215.86 301.167 2205.51 310.5C2195.16 319.833 2182.49 327.333 2167.51 333C2152.53 338.667 2135.77 341.5 2117.22 341.5C2087.46 341.5 2061.39 334.25 2039 319.75C2016.61 305.25 1999.22 284.5 1986.83 257.5C1974.45 230.5 1968.25 199.833 1968.25 165V155Z"></path>
<path fill="#000000" d="M1756.16 302V0H1837.01V302H1756.16Z"></path>
<path fill="#000000" d="M1548.69 302V0H1679.46C1701.95 0 1721.62 4.08034 1738.49 12.2398C1755.35 20.3994 1768.47 32.1471 1777.83 47.483C1787.2 62.8189 1791.89 81.2024 1791.89 102.633C1791.89 124.261 1787.05 142.497 1777.39 157.341C1767.82 172.186 1754.36 183.393 1737 190.963C1719.74 198.532 1682.48 202.317 1659.4 202.317V138.614C1669.07 138.614 1677.83 137.434 1684.63 135.075C1691.54 132.617 1696.81 128.734 1700.46 123.425C1704.21 118.117 1706.08 111.186 1706.08 102.633C1706.08 93.9824 1704.21 86.9534 1700.46 81.5465C1696.81 76.0413 1691.54 72.0107 1684.63 69.4547C1677.83 66.8004 1669.59 65.4732 1659.93 65.4732H1630.94V302H1548.69ZM1726.2 163.387L1801.94 302H1712.59L1659.4 202.317V163.387H1726.2Z"></path>
<path fill="#000000" d="M1296.47 155C1296.47 120.5 1302.59 89.8333 1314.82 63C1327.05 36.1667 1344.27 15.25 1366.49 0.25C1388.71 -14.75 1414.55 -22.25 1444 -22.25C1473.44 -22.25 1499.28 -14.75 1521.5 0.25C1543.72 15.25 1560.94 36.1667 1573.17 63C1585.4 89.8333 1591.52 120.5 1591.52 155C1591.52 189.5 1585.4 220.167 1573.17 247C1560.94 273.833 1543.72 294.75 1521.5 309.75C1499.28 324.75 1473.44 332.25 1444 332.25C1414.55 332.25 1388.71 324.75 1366.49 309.75C1344.27 294.75 1327.05 273.833 1314.82 247C1302.59 220.167 1296.47 189.5 1296.47 155ZM1366.5 155C1366.5 178.833 1369.94 199.25 1376.82 216.25C1383.7 233.25 1393.38 246.167 1405.87 255C1418.37 263.833 1432.97 268.25 1449.64 268.25C1466.31 268.25 1480.91 263.833 1493.4 255C1505.9 246.167 1515.58 233.25 1522.46 216.25C1529.34 199.25 1532.78 178.833 1532.78 155C1532.78 131.167 1529.34 110.75 1522.46 93.75C1515.58 76.75 1505.9 63.8333 1493.4 55C1480.91 46.1667 1466.31 41.75 1449.64 41.75C1432.97 41.75 1418.37 46.1667 1405.87 55C1393.38 63.8333 1383.7 76.75 1376.82 93.75C1369.94 110.75 1366.5 131.167 1366.5 155Z"></path>
<path fill="#000000" d="M1083.77 302V0H1164.62V302H1083.77Z"></path>
<path fill="#000000" d="M828.117 0.000584602H909.844V186.688C909.844 199.813 912.148 211.5 916.758 221.75C921.369 232 927.898 239.938 936.348 245.563C944.797 251.188 955.047 254 967.098 254C979.281 254 989.59 251.188 998.023 245.563C1006.46 239.938 1012.97 232 1017.58 221.75C1022.19 211.5 1024.49 199.813 1024.49 186.688V0.000584602H1106.22V186.688C1106.22 210.375 1101.44 231.5 1091.88 250.063C1082.32 268.625 1069.08 283.125 1052.18 293.563C1035.27 304 1015.73 309.219 993.562 309.219C971.398 309.219 951.859 304 934.953 293.563C918.047 283.125 904.812 268.625 895.250 250.063C885.688 231.5 880.906 210.375 880.906 186.688L828.117 186.688V0.000584602Z"></path>
</svg>