<svg width="2577" height="302" viewBox="0 0 2577 302" fill="none" xmlns="http://www.w3.org/2000/svg">
<path d="M626.648 0.000584602V302.001H545.476V0.000584602H626.648Z" fill="white"/>
<path d="M266.244 302.001V0.000584602H397.015C419.5 0.000584602 439.175 4.08034 456.039 12.2398C472.903 20.3994 486.02 32.1471 495.389 47.483C504.757 62.8189 509.442 81.2024 509.442 102.633C509.442 124.261 504.61 142.497 494.945 157.341C485.379 172.186 471.917 183.393 454.56 190.963C437.301 198.532 400.036 202.317 376.959 202.317V138.614C386.624 138.614 395.388 137.434 402.192 135.075C409.096 132.617 414.372 128.734 418.021 123.425C421.769 118.117 423.642 111.186 423.642 102.633C423.642 93.9824 421.769 86.9534 418.021 81.5465C414.372 76.0413 409.096 72.0107 402.192 69.4547C395.388 66.8004 387.153 65.4732 377.488 65.4732H348.494V302.001H266.244ZM443.761 163.387L519.501 302.001H430.151L376.959 202.317V163.387H443.761Z" fill="white"/>
<path d="M2375.19 302V0H2456.04V235.925H2576.5V302H2375.19Z" fill="white"/>
<path d="M2146 302V0H2228.15V235.925H2350.55V302H2146Z" fill="white"/>
<path d="M1899.32 302.001H1811.76L1910.56 0.000584602H2021.41L2120.21 302.001H2032.66L1967.19 83.1012H1964.78L1899.32 302.001Z" fill="white"/>
<path d="M1674.57 302.001C1647.05 302.001 1622.29 296.211 1600.31 284.631C1578.45 273.051 1561.12 256.076 1548.3 233.705C1535.62 211.203 1529.28 183.701 1529.28 151.198C1529.28 118.432 1535.76 90.798 1548.71 68.296C1561.66 45.794 1579.13 28.8189 1601.12 17.3705C1623.1 5.79056 1647.59 0.000584602 1674.57 0.000584602C1693.59 0.000584602 1711.13 2.5666 1727.18 7.69862C1743.23 12.6991 1757.26 20.1339 1769.27 30.0032C1781.41 39.7409 1791.12 51.7156 1798.41 65.9274C1805.69 80.0076 1810.14 96.1932 1811.76 114.484H1728.8C1728.26 107.773 1726.71 101.654 1724.14 96.1274C1721.72 90.6006 1718.28 85.8633 1713.82 81.9156C1709.51 77.9679 1704.25 74.9413 1698.04 72.8359C1691.97 70.5988 1684.96 69.4803 1677 69.4803C1663.37 69.4803 1651.77 72.7701 1642.19 79.3496C1632.75 85.7975 1625.6 95.1404 1620.74 107.378C1615.89 119.485 1613.46 134.091 1613.46 151.198C1613.46 169.094 1615.95 184.096 1620.95 196.202C1625.94 208.308 1633.09 217.388 1642.39 223.441C1651.84 229.494 1663.24 232.521 1676.59 232.521C1684.15 232.521 1690.89 231.6 1696.83 229.757C1702.76 227.915 1707.96 225.218 1712.41 221.665C1716.86 218.112 1720.43 213.835 1723.13 208.835C1725.96 203.834 1727.85 198.176 1728.8 191.859H1811.76C1810.82 204.361 1807.24 217.125 1801.04 230.152C1794.97 243.048 1786.2 254.957 1774.73 265.879C1763.4 276.669 1749.37 285.42 1732.64 292.131C1716.05 298.711 1696.69 302.001 1674.57 302.001Z" fill="white"/>
<path d="M1503.31 0.000584602V302.001H1435.55L1327.05 143.501H1325.03V302.001H1243.56V0.000584602H1312.93L1419.41 158.095H1421.83V0.000584602H1503.31Z" fill="white"/>
<path d="M1073.09 302.001C1046.09 302.001 1021.61 296.211 999.654 284.631C977.835 273.051 960.539 256.076 947.767 233.705C934.995 211.203 928.608 183.701 928.608 151.198C928.608 118.432 934.995 90.798 947.767 68.296C960.539 45.794 977.835 28.8189 999.654 17.3705C1021.61 5.79056 1046.09 0.000584602 1073.09 0.000584602C1100.1 0.000584602 1124.52 5.79056 1146.34 17.3705C1168.15 28.8189 1185.45 45.794 1198.22 68.296C1211.13 90.798 1217.58 118.432 1217.58 151.198C1217.58 183.832 1211.13 211.401 1198.22 233.903C1185.45 256.273 1168.15 273.248 1146.34 284.828C1124.52 296.276 1100.1 302.001 1073.09 302.001ZM1073.09 232.521C1086.53 232.521 1097.77 229.428 1106.82 223.244C1116 216.927 1122.92 207.716 1127.58 195.61C1132.23 183.503 1134.56 168.7 1134.56 151.198C1134.56 133.565 1132.23 118.695 1127.58 106.589C1122.92 94.3509 1116 85.1396 1106.82 78.9548C1097.77 72.6385 1086.53 69.4803 1073.09 69.4803C1059.79 69.4803 1048.55 72.6385 1039.37 78.9548C1030.32 85.1396 1023.4 94.3509 1018.61 106.589C1013.96 118.695 1011.63 133.565 1011.63 151.198C1011.63 168.7 1013.96 183.503 1018.61 195.61C1023.4 207.716 1030.32 216.927 1039.37 223.244C1048.55 229.428 1059.79 232.521 1073.09 232.521Z" fill="white"/>
<path d="M781.635 302.001C755.726 302.001 733.089 298.245 713.724 290.735C694.492 283.093 679.534 271.366 668.85 255.554C658.166 239.743 652.757 219.517 652.623 194.878H729.55C730.084 203.837 732.354 211.414 736.361 217.607C740.501 223.799 746.244 228.477 753.589 231.639C761.068 234.802 770.016 236.383 780.433 236.383C789.114 236.383 796.392 235.329 802.269 233.221C808.145 231.112 812.552 228.214 815.49 224.524C818.562 220.703 820.098 216.355 820.098 211.48C820.098 207 818.629 203.113 815.691 199.819C812.886 196.393 808.212 193.296 801.668 190.529C795.124 187.762 786.309 185.259 775.224 183.019L745.175 176.694C718.865 171.16 698.098 161.739 682.873 148.431C667.782 134.991 660.236 116.742 660.236 93.6838C660.236 74.9735 665.378 58.635 675.661 44.6681C685.945 30.5695 700.101 19.6332 718.131 11.8592C736.294 3.95346 757.195 0.000584602 780.834 0.000584602C805.007 0.000584602 825.841 4.01935 843.336 12.0569C860.965 19.9626 874.521 31.1624 884.003 45.6563C893.619 60.0185 898.493 76.8182 898.627 96.0556H820.899C820.232 86.4369 816.626 78.9923 810.082 73.7218C803.671 68.3195 793.922 65.6184 780.834 65.6184C772.553 65.6184 765.742 66.6066 760.4 68.583C755.058 70.4277 751.118 73.063 748.581 76.4888C746.043 79.9146 744.775 83.8016 744.775 88.1498C744.775 92.7615 746.11 96.8461 748.781 100.404C751.586 103.83 755.926 106.86 761.802 109.495C767.812 111.999 775.492 114.239 784.84 116.215L809.28 121.354C825.707 124.78 839.797 129.326 851.55 134.991C863.436 140.657 873.118 147.311 880.597 154.953C888.21 162.464 893.752 170.963 897.225 180.45C900.83 189.936 902.633 200.28 902.633 211.48C902.633 230.849 897.759 247.319 888.009 260.891C878.394 274.33 864.571 284.542 846.541 291.525C828.512 298.509 806.876 302.001 781.635 302.001Z" fill="white"/>
<path d="M0 302.001V0.000584602H128.974C151.206 0.000584602 170.626 4.45964 187.233 13.3778C203.974 22.1608 216.966 34.5921 226.207 50.6717C235.582 66.7514 240.269 85.5335 240.269 107.018C240.269 128.638 235.515 147.352 226.006 163.162C216.497 178.836 203.171 190.997 186.028 199.645C168.885 208.158 148.929 212.414 126.161 212.414H49.0182V148.771H109.688C119.331 148.771 127.568 147.082 134.398 143.704C141.229 140.191 146.452 135.326 150.068 129.111C153.684 122.895 155.492 115.531 155.492 107.018C155.492 98.235 153.684 90.8033 150.068 84.7227C146.452 78.5071 141.229 73.7778 134.398 70.5348C127.568 67.2919 119.331 65.6704 109.688 65.6704H81.1612V302.001H0Z" fill="white"/>
</svg>
